<?xml version="1.0" encoding="UTF-8"?>
<svg width="263px" height="141px" viewBox="0 0 263 141" version="1.1" xmlns="http://www.w3.org/2000/svg" xmlns:xlink="http://www.w3.org/1999/xlink">
    <title>BUD_INVEST_Group_</title>
    <g id="Page-2" stroke="none" stroke-width="1" fill="none" fill-rule="evenodd">
        <path d="M0,113.633131 L261.646425,113.633131 L261.646425,112.621676 L0,112.621676 L0,113.633131 Z M68.3826286,82.7488617 C67.9998609,82.7962843 67.612351,82.7712181 67.2390678,82.6777279 L31.4316611,73.5156927 C30.9479511,73.395104 30.4405299,73.395104 29.9554651,73.5156927 L3.72470197,80.2314022 C3.47878221,80.2944064 3.22541034,80.3276022 2.97136101,80.3276022 C1.3352833,80.3235374 0.0108394382,78.9957062 0.012869497,77.3596285 L0.012869497,70.654081 C0.0155816925,69.4556457 0.736404336,68.3750892 1.84405943,67.9130581 L29.570665,56.4970972 C30.2955524,56.2078197 31.1024131,56.2078197 31.8259456,56.4970972 L66.9470805,70.866805 C67.497182,71.1025628 68.1062229,71.1696318 68.6962948,71.0592051 L103.906178,63.5759279 C104.110094,63.5318927 104.318754,63.5108912 104.527413,63.5108912 C106.163491,63.5136011 107.488612,64.8427872 107.485907,66.4781875 L107.485907,74.850976 C107.488612,76.337334 106.390441,77.5960638 104.916955,77.794561 L68.3826286,82.7895096 L68.3826286,82.7488617 Z M104.240168,85.6314748 C104.331626,85.6219903 104.423083,85.618603 104.515896,85.618603 C106.157393,85.6192805 107.487257,86.9518539 107.485903,88.5940288 L107.485903,96.8150653 C107.485903,98.4538528 106.161458,99.781684 104.522671,99.7877812 L2.97610326,99.7877812 C1.33867062,99.781684 0.0128557316,98.4538528 0.0128557316,96.8150653 L0.0128557316,90.0803868 C0.00812957868,88.6306119 1.05142551,87.3901737 2.48087643,87.1476413 L30.188513,82.5767857 C30.5225032,82.5151363 30.8646229,82.5151363 31.1999681,82.5767857 L67.4118214,89.0072824 C67.6767101,89.044543 67.9449862,89.044543 68.209875,89.0072824 L104.240168,85.5901495 L104.240168,85.6314748 Z M30.7650356,17.7271365 C29.8619749,17.7271365 28.9826255,18.025221 28.2672225,18.576 L5.26119234,36.7788041 C4.75512607,37.1968 4.04785272,37.2753859 3.46252305,36.9806887 C2.88261311,36.7063154 2.518137,36.1169209 2.53196183,35.4746842 L2.53196183,28.8199466 C2.52829897,28.3531733 2.72205393,27.9040141 3.06823849,27.586283 L29.5923439,2.83171595 C30.2311933,2.26332291 31.1965807,2.26332291 31.8367851,2.83171595 L65.712062,32.3502161 C66.0731508,32.6645599 66.280455,33.1225261 66.2777714,33.6035262 L66.2777714,38.5070171 C66.2791001,38.856589 66.1720606,39.1987087 65.9688212,39.4852764 C65.4329464,40.2399723 64.3849082,40.4195005 63.6295349,39.8836257 L33.1510669,18.4967366 C32.4566654,17.9933802 31.6213512,17.7244266 30.7650356,17.7271365 L30.7650356,17.7271365 Z M64.6003421,42.6341332 C66.8732368,42.6219388 68.7145864,40.7812667 68.7261039,38.5070171 L68.7261039,33.6441741 C68.7261039,32.4606429 68.2186821,31.3333413 67.3305256,30.548837 L33.4538937,1.04185371 C31.8754006,-0.365918334 29.4866594,-0.344916922 27.9332324,1.09198611 L1.41996641,25.7862588 C0.565683183,26.564666 0.0772309975,27.664869 0.0751986028,28.8199466 L0.0751986028,35.4746842 C0.086715506,36.3601308 0.384800058,37.2184789 0.92406211,37.9216874 C2.30947781,39.7325511 4.89874862,40.0760258 6.70757988,38.6899326 L29.7136101,20.4871285 C30.3131665,20.0427115 31.134254,20.0427115 31.7358428,20.4871285 L62.2143107,41.874695 C62.9107446,42.3726317 63.743349,42.6422628 64.6003421,42.6436177 L64.6003421,42.6341332 Z M30.7135483,44.2417574 C30.0672468,44.2437898 29.4304298,44.3962194 28.8532297,44.6868518 L4.95836553,56.9625156 C4.43671757,57.2226621 3.81751466,57.1969185 3.32093289,56.8913818 C2.8209638,56.5905874 2.51678207,56.0486155 2.52080662,55.4666731 L2.52080662,49.1655722 C2.52491165,48.5985341 2.81351169,48.0701115 3.28976951,47.7611875 L29.7942284,30.2270412 C30.3456848,29.872727 31.0522807,29.872727 31.6037371,30.2270412 L65.6517676,51.5326345 C66.7214847,52.2168741 68.0472834,52.3665938 69.241654,51.9364036 L102.79378,39.9534046 C102.973308,39.8904004 103.162321,39.8585595 103.354721,39.8585595 C104.281493,39.8605919 105.031447,40.6139329 105.028769,41.5407049 L105.028769,50.673609 C105.033479,51.4364345 104.515896,52.1050924 103.774072,52.2907177 L68.230199,61.3301318 C67.8487862,61.431074 67.4423073,61.3924585 67.0886706,61.219705 L32.5135725,44.6563659 C31.953309,44.3853799 31.3374934,44.2431123 30.7135483,44.2417574 L30.7135483,44.2417574 Z M67.8155905,63.8387843 C68.1563553,63.8469138 68.4964427,63.8089758 68.8263681,63.7270025 L104.361434,54.688266 C106.213623,54.2235251 107.506226,52.5522192 107.486138,50.6424457 L107.486138,41.5407049 C107.482515,41.0718991 107.399187,40.6044484 107.239305,40.1627413 C106.46293,38.0192424 104.097223,36.9129422 101.955079,37.6886395 L68.402275,49.6309906 C67.9178876,49.8010343 67.3820129,49.7427723 66.9470805,49.4697539 L32.919374,28.1831296 C31.5610568,27.3085224 29.8165848,27.3085224 28.4589451,28.1831296 L1.95584114,45.7077914 C0.783826878,46.4692619 0.0772309975,47.7693171 0.0751986028,49.1655722 L0.0751986028,55.4666731 C0.0751986028,56.1116197 0.226950738,56.7484367 0.517583176,57.3249593 C1.54529741,59.3580315 4.02685131,60.1743767 6.06060091,59.1480174 L29.965627,46.8601592 C30.4324003,46.632531 30.9764046,46.632531 31.441823,46.8601592 L66.0155662,63.4241757 C66.5771846,63.6965166 67.1930002,63.8374293 67.8155905,63.8387843 L67.8155905,63.8387843 Z M259.624192,98.169995 C259.064606,98.2492584 258.500278,98.2912612 257.934595,98.2912612 C256.158282,98.422012 254.402293,97.8441344 253.051428,96.6836371 C251.937676,95.6118876 251.392317,93.9128057 251.392317,91.5660673 L251.392317,77.0154764 L261.099711,77.0154764 L261.099711,75.6002522 L251.432287,75.6002522 L251.432287,66.8108227 L250.107843,66.8108227 L249.936445,75.6002522 L244.657638,75.6002522 L244.657638,77.0154764 L249.936445,77.0154764 L249.936445,91.8187617 C249.936445,94.4893283 250.584101,96.4709131 251.959355,97.7757105 C253.595432,99.1773853 255.71522,99.8812713 257.864816,99.7369713 C258.486051,99.7396812 259.105932,99.7098727 259.725135,99.646191 C260.372791,99.5743798 261.015705,99.4558234 261.646425,99.2918769 L261.646425,97.7960344 C260.9798,97.9559161 260.30369,98.0819246 259.624192,98.169995 L259.624192,98.169995 Z M229.095592,99.5154403 C230.304867,99.6739671 231.525659,99.7511981 232.745773,99.7466616 C235.907502,99.7410361 238.266434,99.1570614 239.823926,97.997919 C241.368546,96.878747 242.24925,95.0604312 242.170664,93.1533675 C242.250605,91.6595574 241.682212,90.2050403 240.613173,89.159712 C239.160688,87.9965048 237.407409,87.2743272 235.557252,87.0771849 L231.907071,86.418689 C230.490492,86.2710017 229.157241,85.6843171 228.094299,84.741286 C228.067878,84.7101226 228.042812,84.6789592 228.017745,84.6457634 C226.420961,82.5998195 226.784759,79.6433627 228.832058,78.0465779 C230.059625,77.1502919 232.020885,76.7011327 234.717196,76.7011327 C235.707649,76.6991003 236.698781,76.7654918 237.680427,76.9050496 C238.729143,77.0595116 239.765664,77.2864623 240.785249,77.581837 L240.785249,76.0846396 C238.810439,75.5284409 236.769237,75.2493254 234.717196,75.2553248 C231.582566,75.2553248 229.247344,75.8421072 227.729145,77.0351229 C226.221786,78.1475202 225.358696,79.9333177 225.423732,81.8071855 C225.369535,83.3043829 225.914894,84.7622874 226.941254,85.8530059 C228.311765,87.0399244 230.00475,87.789878 231.804774,88.0073442 L235.454955,88.6644852 C236.50909,88.8250443 237.530707,89.140743 238.48932,89.604129 C239.152558,89.9313445 239.700627,90.4489277 240.066459,91.0918419 C240.409256,91.784211 240.572525,92.5524562 240.541361,93.3254436 C240.621302,94.7914776 239.931643,96.1951849 238.721013,97.0271118 C237.498867,97.8766527 235.546413,98.2912612 232.846715,98.2912612 C231.670636,98.2973584 230.49388,98.2235148 229.327285,98.0690528 C228.109203,97.8990091 226.906026,97.6368302 225.728592,97.2798062 L225.728592,98.7770036 C226.811858,99.1096388 227.920191,99.3569135 229.044782,99.5154403 L229.095592,99.5154403 Z M202.338439,86.6822229 C202.513902,80.0281627 205.252893,76.7011327 210.559475,76.7011327 C212.812723,76.558865 215.003645,77.4653131 216.494745,79.1589753 C217.863902,80.8045375 218.581337,83.3118351 218.649761,86.6822229 L202.286951,86.6822229 L202.338439,86.6822229 Z M220.186251,87.4091427 C220.186251,83.3646773 219.357034,80.331667 217.689116,78.3087568 C215.938546,76.2045509 213.292369,75.0562479 210.559475,75.2147747 C208.710674,75.1666747 206.885583,75.6354804 205.290153,76.5697045 C203.75434,77.5486412 202.566744,78.9848668 201.892667,80.6751417 C201.043126,82.8267702 200.640712,85.1281184 200.710491,87.4403061 C200.710491,91.5660673 201.690782,94.6505649 203.662205,96.6727976 C205.634305,98.6950303 208.466109,99.7064854 212.136613,99.7064854 C214.488772,99.6800643 216.820606,99.2790051 219.043368,98.5134697 L219.043368,97.0162723 C216.850414,97.7804527 214.549743,98.1964162 212.228071,98.2506134 C205.79622,98.2506134 202.483416,94.8795481 202.286951,88.1394499 L220.186251,88.1394499 L220.186251,87.4091427 Z M185.561698,98.169995 L175.511507,75.6002522 L173.842911,75.6002522 L184.440494,99.3521713 L186.462727,99.3521713 L197.06031,75.6002522 L195.523142,75.6002522 L185.561698,98.169995 Z M150.018503,99.3521713 L151.5157,99.3521713 L151.5157,80.524067 C152.68094,79.2368837 154.137489,78.2464301 155.76205,77.6319694 C157.308702,77.0269933 158.953587,76.7106172 160.616086,76.7011327 C162.512988,76.5676721 164.390243,77.1814553 165.842728,78.4103766 C167.046583,79.5424204 167.644107,81.3830925 167.644107,83.9113915 L167.644107,99.3521713 L169.139949,99.3521713 L169.139949,83.9628788 C169.139949,80.9420629 168.398125,78.7342048 166.915832,77.3386271 C165.161875,75.8603987 162.90524,75.1145099 160.616086,75.2554226 C158.974589,75.2540677 157.345963,75.5386029 155.802698,76.095479 C154.274337,76.6442256 152.8625,77.4775074 151.645773,78.5512893 L151.464213,78.5512893 L151.332107,75.6002522 L150.018503,75.6002522 L150.018503,99.3521713 Z M140.956732,99.3630107 L140.956732,66.8216622 L139.46089,66.8216622 L139.46089,99.3521713 L140.956732,99.3630107 Z M253.212665,45.5153914 C250.091584,48.3797129 245.342555,49.8125512 238.964223,49.8125512 C236.260461,49.8389723 233.556698,49.6763807 230.874615,49.3281638 L230.874615,15.179191 C233.581087,14.7191924 236.320078,14.475305 239.06652,14.4515937 C245.381171,14.4515937 250.101068,15.9000137 253.222827,18.7995634 C256.337133,21.6787892 257.894625,26.1270237 257.894625,32.1462992 C257.894625,38.1682846 256.337133,42.6097444 253.222827,45.4747435 L253.212665,45.5153914 Z M225.918959,53.2005531 C229.921422,53.6984898 233.950983,53.9383123 237.983931,53.9179884 C246.342493,53.8719208 252.603624,52.0881557 256.761903,48.5687256 C260.92086,45.0506504 263,39.5835088 263,32.1679781 C262.995258,24.8940376 260.97167,19.4363804 256.934657,15.7956841 C252.895611,12.1549878 246.929855,10.3359945 239.035357,10.3359945 C236.910827,10.3359945 234.68671,10.4525185 232.36165,10.6896312 C230.196473,10.905065 228.046876,11.2424426 225.918959,11.6997314 L225.918959,53.1612601 L225.918959,53.2005531 Z M183.732543,49.8328751 C186.616511,52.7378446 191.107426,54.1910067 197.202577,54.1910067 C203.261823,54.2262349 207.724962,52.7737502 210.589961,49.8328751 C213.454283,46.8933549 214.887798,42.3902458 214.887798,36.3242252 L214.887798,10.7912509 L210.054086,10.7912509 L210.054086,36.8201295 C210.060861,41.3896302 209.01892,44.7274997 206.928941,46.8303507 C204.838962,48.9338792 201.597292,49.9853047 197.202577,49.9853047 C192.799056,49.9853047 189.559419,48.9338792 187.483666,46.8303507 C185.406559,44.7274997 184.36936,41.3896302 184.36936,36.8201295 L184.36936,10.7912509 L179.423866,10.7912509 L179.423866,36.2842548 C179.423866,42.3841486 180.860769,46.8879352 183.732543,49.7935821 L183.732543,49.8328751 Z M161.151961,49.2665145 C158.302543,49.9812399 155.36912,50.2949062 152.43502,50.1980287 C150.775231,50.1980287 149.320036,50.1668653 148.066049,50.086247 C146.811384,50.0056287 145.567558,49.873523 144.333895,49.6824779 L144.333895,33.5025839 L155.307471,33.5025839 C159.33771,33.5093586 162.294167,34.157015 164.174809,35.4435208 C166.055452,36.7320591 166.997128,38.7874875 166.997128,41.6118387 C167.070294,43.3136305 166.606908,44.9944209 165.670652,46.4157422 C164.514896,47.8248692 162.926241,48.812613 161.151961,49.2272215 L161.151961,49.2665145 Z M144.333895,14.8452008 C147.285609,14.3269402 150.277294,14.0837303 153.274399,14.1162486 C155.700401,14.051212 158.123015,14.322198 160.473818,14.9258192 C162.040795,15.3085868 163.43434,16.202163 164.437666,17.4649576 C165.338016,18.8090479 165.781078,20.4085425 165.701815,22.0256512 C165.701815,24.7050249 164.802142,26.6662857 163.021764,27.8999493 C161.235289,29.1329354 158.461748,29.7514608 154.699785,29.7514608 L144.333895,29.7514608 L144.333895,14.8452008 L144.333895,14.8452008 Z M169.362158,34.9794574 C167.568231,33.0507148 165.136132,31.8400851 162.515698,31.571809 C164.827208,31.1605878 166.921929,29.9506355 168.431998,28.1533212 C169.774734,26.3478772 170.463716,24.1413741 170.383097,21.8935456 C170.423745,18.0367379 169.022748,15.1493826 166.176718,13.2267372 C163.332043,11.3054468 158.876356,10.345479 152.808303,10.345479 C150.508987,10.336672 148.210349,10.4511636 145.921873,10.6896312 C143.741113,10.9118397 141.575258,11.2498947 139.429049,11.6997314 L139.429049,53.1612601 C143.394251,53.6971348 147.392649,53.9667659 151.393079,53.9694757 C155.366411,54.0866772 159.335677,53.6199038 163.174193,52.5833826 C165.699105,51.9607923 167.957096,50.5435358 169.61553,48.5389172 C171.00501,46.5817211 171.714316,44.2234658 171.637762,41.8245626 C171.738705,39.3409764 170.929812,36.906845 169.362158,34.9794574 L169.362158,34.9794574 Z M254.869066,134.050568 C254.51001,134.050568 254.173987,134.041761 253.857611,134.025502 C253.544623,134.00992 253.223504,133.976724 252.898998,133.930657 L252.898998,126.797629 C253.250603,126.739367 253.611014,126.693977 253.9782,126.664846 C254.347418,126.635037 254.745768,126.619456 255.176635,126.619456 C256.589827,126.619456 257.64193,126.916185 258.334977,127.509645 C259.028023,128.103781 259.374885,129.054264 259.374885,130.359739 C259.374885,131.606275 259.020571,132.534402 258.309911,133.140055 C257.60196,133.746386 256.454334,134.050568 254.869066,134.050568 L254.869066,134.050568 Z M252.898998,140.189077 L252.898998,135.27407 C253.243828,135.301846 253.566979,135.322847 253.868451,135.338429 C254.1706,135.356043 254.493751,135.36214 254.839258,135.36214 C256.947529,135.36214 258.498246,134.93195 259.490054,134.070215 C260.481186,133.209157 260.976412,131.961944 260.976412,130.329931 C260.976412,128.592911 260.478476,127.321987 259.479215,126.515126 C258.481309,125.70962 257.01121,125.306529 255.067564,125.306529 C254.385356,125.306529 253.737023,125.339724 253.122562,125.406116 C252.510811,125.47183 251.897028,125.563965 251.286632,125.684554 L251.286632,140.189077 L252.898998,140.189077 Z M194.029332,140.376735 C195.282642,140.376735 196.309679,140.170786 197.107732,139.760242 C197.907818,139.349698 198.49789,138.717624 198.878626,137.86605 C199.260038,137.014477 199.449728,135.931888 199.449728,134.617606 L199.449728,125.464378 L197.879365,125.464378 L197.879365,134.797134 C197.879365,136.248942 197.569086,137.309852 196.95327,137.979864 C196.335422,138.650555 195.361228,138.983867 194.029332,138.983867 C192.710308,138.983867 191.739501,138.650555 191.11962,137.979864 C190.499062,137.309852 190.190138,136.248942 190.190138,134.797134 L190.190138,125.464378 L188.577772,125.464378 L188.577772,134.617606 C188.577772,135.931888 188.771527,137.014477 189.159037,137.86605 C189.548579,138.717624 190.142716,139.349698 190.944834,139.760242 C191.74763,140.170786 192.775344,140.376735 194.029332,140.376735 L194.029332,140.376735 Z M131.268984,138.994707 C130.373376,138.994707 129.592259,138.796887 128.925633,138.398538 C128.259008,138.000188 127.742102,137.34779 127.374239,136.443374 C127.005698,135.538281 126.822782,134.315457 126.822782,132.778289 C126.822782,131.272962 127.005698,130.071817 127.374239,129.176886 C127.742102,128.2806 128.259008,127.637685 128.925633,127.246111 C129.592259,126.855213 130.373376,126.658749 131.268984,126.658749 C132.156463,126.658749 132.934871,126.858601 133.601496,127.256273 C134.268122,127.653267 134.786382,128.308376 135.154246,129.216856 C135.521432,130.124659 135.704347,131.346128 135.704347,132.877876 C135.704347,134.375074 135.521432,135.572832 135.154246,136.469118 C134.786382,137.363371 134.268122,138.008318 133.601496,138.40328 C132.934871,138.797565 132.156463,138.994707 131.268984,138.994707 L131.268984,138.994707 Z M131.268984,140.376735 C132.482324,140.376735 133.547976,140.116589 134.466619,139.597651 C135.385939,139.076003 136.099309,138.261012 136.611473,137.149292 C137.121604,136.039605 137.377685,134.598637 137.377685,132.827744 C137.377685,131.056173 137.121604,129.615205 136.611473,128.505518 C136.099309,127.394475 135.387294,126.579485 134.471361,126.057837 C133.556106,125.538222 132.488421,125.27672 131.268984,125.27672 C130.04887,125.27672 128.977798,125.538222 128.060511,126.057837 C127.141191,126.579485 126.428498,127.394475 125.917012,128.505518 C125.405526,129.615205 125.150799,131.056173 125.150799,132.827744 C125.150799,134.598637 125.405526,136.039605 125.917012,137.149292 C126.428498,138.261012 127.139836,139.076003 128.056446,139.597651 C128.971024,140.116589 130.042773,140.376735 131.268984,140.376735 L131.268984,140.376735 Z M75.6911198,140.189077 L70.4597359,133.265386 L68.6576793,133.265386 L73.8504477,140.189077 L75.6911198,140.189077 Z M68.518799,132.816904 C68.2464581,132.816904 68.0059581,132.813517 67.7932341,132.80742 C67.5805101,132.800645 67.3711735,132.791161 67.1665791,132.777611 C66.9599523,132.76474 66.7282593,132.744416 66.4694677,132.718672 L66.4694677,126.808468 C66.8474931,126.743432 67.2228087,126.691944 67.593382,126.654006 C67.9653102,126.618101 68.4002427,126.599132 68.8968244,126.599132 C69.8581471,126.599132 70.6426514,126.703461 71.24966,126.912798 C71.8566685,127.12349 72.3024404,127.453415 72.5876531,127.907316 C72.8728659,128.362573 73.0151335,128.958064 73.0151335,129.694469 C73.0151335,130.755379 72.6601419,131.541238 71.9508361,132.050692 C71.2408529,132.5615 70.0966147,132.816904 68.518799,132.816904 L68.518799,132.816904 Z M66.4694677,140.189077 L66.4694677,134.02076 C66.800748,134.047181 67.1225439,134.069537 67.4355326,134.085119 C67.746489,134.102733 68.1041905,134.11154 68.508637,134.11154 C69.8283386,134.11154 70.9359937,133.944883 71.8316023,133.613603 C72.7265334,133.281645 73.4046758,132.787096 73.8660294,132.13131 C74.327383,131.474169 74.5570436,130.655791 74.5570436,129.673467 C74.5570436,128.17627 74.0821407,127.072002 73.1336898,126.366084 C72.1859165,125.659488 70.7449486,125.306529 68.8080765,125.306529 C68.2965905,125.306529 67.8122031,125.325498 67.3549143,125.361403 C66.8969481,125.399341 66.4647255,125.445409 66.0568916,125.505703 C65.6497352,125.563965 65.2561281,125.631034 64.8781027,125.704201 L64.8781027,140.189077 L66.4694677,140.189077 Z M9.85711415,140.317796 C8.1986801,140.317796 6.81055454,140.056294 5.68935015,139.531936 C4.56882322,139.008256 3.72266957,138.198008 3.15224413,137.099837 C2.5818187,136.002344 2.29660598,134.587798 2.29660598,132.857552 C2.29660598,131.07311 2.59265814,129.624012 3.18205259,128.508905 C3.77280197,127.39583 4.60879365,126.57813 5.68935015,126.057837 C6.77058411,125.538899 8.04692797,125.277398 9.51838171,125.277398 C10.0759353,125.277398 10.6287467,125.312626 11.1754608,125.38647 C11.7228525,125.458958 12.2682117,125.569385 12.812216,125.714363 L12.812216,127.11807 C12.214692,126.951413 11.6584933,126.837599 11.1409101,126.773918 C10.6240044,126.711591 10.1125184,126.678395 9.609162,126.678395 C8.44121253,126.678395 7.4385645,126.87757 6.5991855,127.275919 C5.76048396,127.674268 5.11621485,128.323957 4.66502323,129.225663 C4.21315415,130.127369 3.98891327,131.337999 3.98891327,132.857552 C3.98891327,134.296488 4.20366964,135.462405 4.63521478,136.353949 C5.06675991,137.24617 5.70899663,137.897214 6.56531225,138.308435 C7.42027294,138.719656 8.48524775,138.924928 9.75888175,138.924928 C10.2351396,138.924928 10.6822664,138.905959 11.09552,138.864634 C11.5114834,138.825341 11.8962835,138.771821 12.2553399,138.706107 L11.6185229,139.372732 L11.6185229,133.025564 L13.1495935,133.025564 L13.1495935,140.029873 C12.5270033,140.12946 11.9572553,140.201272 11.4389947,140.247339 C10.922089,140.294084 10.3943438,140.317796 9.85711415,140.317796 L9.85711415,140.317796 Z" id="BUD_INVEST_Group_" fill="#676665"></path>
    </g>
</svg>