<?xml version="1.0" encoding="UTF-8"?>
<svg width="150px" height="47px" viewBox="0 0 150 47" version="1.1" xmlns="http://www.w3.org/2000/svg" xmlns:xlink="http://www.w3.org/1999/xlink">
    <title>logo_BI_STEEL_white</title>
    <g id="Page-2" stroke="none" stroke-width="1" fill="none" fill-rule="evenodd">
        <g id="Artboard" fill="#FFFFFF" fill-rule="nonzero">
            <g id="logo_BI_STEEL_white">
                <path d="M39.3836834,10.3412597 L23.4170155,17.1366464 C22.2550201,17.6123371 20.9493544,17.6123371 19.787359,17.1366464 L10.4610521,13.1688956 C9.57847247,12.7913741 9.57847247,11.8626713 10.4610521,11.4851498 L19.7797176,7.53249992 C20.941713,7.05680913 22.2473787,7.05680913 23.4093741,7.53249992 L29.3161624,10.0392425 C30.1610974,10.3872821 31.1091549,10.4007997 31.9639013,10.0769947 L37.3510757,7.97797526 C38.2718623,7.60045378 38.2986071,6.6604253 37.3931033,6.27912861 L23.4093741,0.359591804 C22.2481397,-0.119863935 20.9409519,-0.119863935 19.7797176,0.359591804 L1.36016601,8.15918557 C0.523434674,8.51405577 0,9.16339271 0,9.86935788 L0,14.7771371 C0,15.4831023 0.511972601,16.1324392 1.34870394,16.4873094 L19.7224072,24.2906784 C20.9263706,24.7814991 22.2780038,24.7814991 23.4819672,24.2906784 L34.6536678,19.4244265 C35.5438889,19.046905 36.6633513,19.5150317 36.6633513,20.2625242 L36.6633513,21.4668177 C36.6633513,22.1690077 36.147558,22.8221198 35.3146474,23.17699 L23.4131948,28.3490343 C22.2511994,28.8247251 20.9455337,28.8247251 19.7835383,28.3490343 L2.01732488,20.7986047 C1.14620732,20.4286337 0,20.8967603 0,21.648028 L0,26.0084011 C0,26.7143663 0.511972601,27.3637032 1.34870394,27.7185734 L19.7835383,35.5408185 C20.946898,36.0163084 22.2536557,36.0163084 23.4170155,35.5408185 L41.8174636,27.7185734 C42.6503742,27.3637032 43.1623932,26.7143663 43.1623932,26.0121763 L43.1623932,11.9230747 C43.1738089,10.5073692 41.057146,9.62774413 39.3836834,10.3412597 Z" id="Path"></path>
                <path d="M41.1570607,31.3276478 L23.395545,38.7445323 C22.2356438,39.2140625 20.9305691,39.2140625 19.7706679,38.7445323 L2.00533243,31.3276478 C1.1153468,30.9568036 0,31.4166504 0,32.1583389 L0,36.4378812 C0,37.1313599 0.511837229,37.769212 1.34834733,38.1178055 L19.7668482,45.8016978 C20.9293974,46.2712289 22.2368154,46.2712289 23.3993646,45.8016978 L41.8140458,38.1178055 C42.6505559,37.769212 43.1623932,37.1313599 43.1623932,36.4378812 L43.1623932,32.1583389 C43.1623932,31.4166504 42.0470464,30.9568036 41.1570607,31.3276478 Z" id="Path"></path>
                <path d="M53.5959511,15.38164 C53.2530942,15.38164 52.9102373,15.38164 52.5711481,15.3582833 C52.2320588,15.3349266 51.8854342,15.3193555 51.5312743,15.2882133 C51.1771144,15.2570711 50.8116516,15.2142505 50.4273504,15.1597516 L50.4273504,3.80451651 C50.8041163,3.71887538 51.1808821,3.64880537 51.5576479,3.59430647 C51.9344138,3.53980757 52.3111796,3.49698701 52.7218544,3.46584478 C53.1325292,3.43470255 53.5432039,3.42302421 53.9877876,3.42302421 C54.8922582,3.39398939 55.7953881,3.51490097 56.6628251,3.78115984 C57.2622208,3.95767779 57.7906601,4.32894979 58.1698884,4.83999561 C58.50363,5.3547 58.6723348,5.96477565 58.6521487,6.58396041 C58.6579228,7.02586259 58.5678039,7.4634876 58.3884126,7.86468456 C58.2124769,8.24630194 57.9372138,8.56979501 57.5934367,8.79895141 C57.1762111,9.06711118 56.7064604,9.23598661 56.2182414,9.29333429 L56.2483826,9.18433649 C57.0210148,9.21293776 57.7556813,9.53765622 58.3092918,10.0952467 C58.7615116,10.6335114 58.9985846,11.3293805 58.9723997,12.041636 C58.9814592,12.5310578 58.8849321,13.0164234 58.6898253,13.4625001 C58.4858279,13.9034371 58.1626049,14.2738993 57.7592137,14.5291215 C57.2514856,14.848741 56.6905906,15.0678768 56.1052116,15.1753227 C55.2776436,15.3311743 54.4369601,15.4002973 53.5959511,15.38164 Z M53.8747579,14.3344825 C54.6579133,14.3618031 55.4408029,14.272655 56.1994031,14.0697736 C56.6661854,13.9549913 57.0817457,13.6806394 57.3786802,13.2912179 C57.6148602,12.9068614 57.7330603,12.4577112 57.7177694,12.0027082 C57.7682981,11.3435206 57.4827422,10.7047614 56.9642377,10.3171351 C56.4618833,9.96678499 55.6807221,9.79160995 54.6207542,9.79160995 L51.5388097,9.79160995 L51.5388097,8.73277418 L54.4700479,8.73277418 C55.0202132,8.74703498 55.5692145,8.67350477 56.0976763,8.51477858 C56.4819143,8.40354176 56.8189021,8.16228402 57.0546615,7.82964955 C57.2788813,7.47111096 57.3894947,7.04933811 57.3711448,6.6228882 C57.4256014,5.97271844 57.1378533,5.3424341 56.6176132,4.97235008 C56.1127469,4.63757113 55.2725591,4.47018165 54.0895144,4.47018165 C53.5884158,4.47018165 53.1513674,4.47018165 52.7783693,4.52078777 C52.4282407,4.55135689 52.0798891,4.6007322 51.7347279,4.66871335 L51.7347279,14.1943425 C52.0775848,14.2449486 52.4166741,14.2838764 52.748228,14.3033403 C53.0797819,14.3228042 53.4527801,14.3344825 53.8747579,14.3344825 Z" id="Shape"></path>
                <path d="M65.3821414,15.3793249 C64.4686101,15.4175392 63.5582495,15.2483429 62.7186084,14.8842904 C62.0402786,14.5570882 61.4949287,14.0045197 61.1745857,13.3198301 C60.8142541,12.4696247 60.6486274,11.5487879 60.6899654,10.6254818 L60.6899654,3.84615385 L62.0123401,3.84615385 L62.0123401,10.7577429 C62.0123401,11.9821032 62.2865825,12.8739211 62.842581,13.425639 C63.3985794,13.9773569 64.2476041,14.2569947 65.4009251,14.2569947 C66.5542462,14.2569947 67.3957574,13.9811358 67.9517558,13.425639 C68.5077542,12.8701422 68.7819967,11.9821032 68.7819967,10.7577429 L68.7819967,3.84615385 L70.0818309,3.84615385 L70.0818309,10.6254818 C70.113216,11.5450286 69.941279,12.4601172 69.5784269,13.3047145 C69.2604574,13.9985994 68.7098635,14.5577897 68.023134,14.8842904 C67.1912054,15.2476093 66.2883267,15.4168472 65.3821414,15.3793249 Z" id="Path"></path>
                <path d="M76.836216,15.3814649 C76.4743049,15.3814649 76.1163276,15.3814649 75.7622841,15.3814649 C75.4082407,15.3814649 75.0502634,15.3475818 74.6844184,15.3212283 C74.3185735,15.2948748 73.921258,15.2534621 73.5042735,15.2007551 L73.5042735,4.20004394 C73.8937464,4.11386489 74.2876674,4.04726245 74.6844184,4.00051016 C75.0974692,3.94780313 75.5183875,3.91015525 75.9353721,3.88380173 C76.3523566,3.85744821 76.7536059,3.84615385 77.1351861,3.84615385 C79.3014077,3.84615385 80.9470542,4.32428195 82.0721257,5.28053815 C83.1971972,6.23679435 83.7584217,7.68498288 83.7557992,9.62510374 C83.8006387,10.7499982 83.5361245,11.8664482 82.988705,12.8628216 C82.4587894,13.7197508 81.644549,14.3823819 80.6756209,14.7452157 C79.4521803,15.1975248 78.1473357,15.4137579 76.836216,15.3814649 Z M77.115517,14.278382 C78.1131862,14.3099797 79.1065628,14.1393424 80.030475,13.7776651 C80.7742564,13.4728458 81.3865043,12.9334082 81.7652881,12.2491611 C82.1790819,11.4288915 82.3762911,10.5239951 82.3396253,9.61380937 C82.3763635,8.70320512 82.1777348,7.79799555 81.7613542,6.97845763 C81.3836566,6.29210981 80.7732736,5.74911018 80.030475,5.43865926 C79.123416,5.08596504 78.1491542,4.91923606 77.1705904,4.94923679 C76.8113019,4.94923679 76.4454569,4.96429594 76.0730556,4.99441425 C75.6993431,5.02453255 75.3098953,5.0734748 74.8929107,5.13371141 L74.8929107,14.1390848 C75.1997484,14.1842622 75.5262552,14.2219101 75.8802986,14.2444989 C76.2343421,14.2670876 76.643459,14.278382 77.115517,14.278382 Z" id="Shape"></path>
                <polygon id="Path" points="90.1709402 15.3846154 90.1709402 3.84615385 91.4529915 3.84615385 91.4529915 15.3846154"></polygon>
                <polygon id="Path" points="94.8717949 15.3846154 94.8717949 3.84615385 96.1821376 3.84615385 103.363544 13.9413506 103.057797 13.9413506 103.057797 3.84615385 104.273504 3.84615385 104.273504 15.3846154 102.963161 15.3846154 95.7890348 5.28941861 96.0911416 5.28941861 96.0911416 15.3846154"></polygon>
                <polygon id="Path" points="110.586728 15.3846154 105.982906 3.84615385 107.421836 3.84615385 111.734851 14.7606044 111.42516 14.7606044 115.753281 3.84615385 117.094017 3.84615385 112.486418 15.3846154"></polygon>
                <path d="M118.803419,15.3846154 L118.803419,3.84615385 L126.831329,3.84615385 L126.831329,4.92955949 L120.133758,4.92955949 L120.133758,14.3012097 L126.923077,14.3012097 L126.923077,15.3846154 L118.803419,15.3846154 Z M119.487703,10.0250115 L119.487703,8.9224644 L126.051475,8.9224644 L126.051475,10.00587 L119.487703,10.0250115 Z" id="Shape"></path>
                <path d="M131.981281,15.3825549 C130.902662,15.3870303 129.829906,15.2159304 128.801252,14.8753546 L128.801252,13.7138271 C129.163985,13.8389898 129.533566,13.9411307 129.907991,14.019696 C130.276903,14.0971312 130.645816,14.1552076 131.014729,14.1939251 C131.383642,14.2326427 131.704596,14.2481298 132.014483,14.2481298 C133.065885,14.2481298 133.833224,14.0622854 134.323878,13.6944683 C134.812374,13.3273424 135.09017,12.7252967 135.061703,12.0954322 C135.088519,11.576676 134.870583,11.0772455 134.478821,10.7596756 C133.89707,10.3742657 133.242564,10.1259224 132.560474,10.0317851 L131.885364,9.89627354 C130.749112,9.66783981 129.922747,9.28840751 129.406269,8.76572015 C128.881706,8.22554682 128.601281,7.47640006 128.635241,6.70594479 C128.598486,5.76419677 129.005417,4.86371784 129.723534,4.2977112 C130.46136,3.70920395 131.538585,3.41880342 132.988413,3.41880342 C133.490585,3.41787717 133.992236,3.4528037 134.489888,3.52335956 C134.945257,3.59061103 135.39531,3.69284184 135.836421,3.82922846 L135.836421,4.99075591 C135.383344,4.84165825 134.919435,4.73159352 134.449308,4.66165647 C133.967644,4.59203149 133.482003,4.55710397 132.995791,4.557119 C132.41027,4.53941679 131.825904,4.62179967 131.26559,4.80103976 C130.870141,4.92634369 130.521065,5.17644012 130.265836,5.51731503 C130.043757,5.85167013 129.929946,6.25208072 129.941193,6.65948369 C129.910928,7.15176186 130.085939,7.63355534 130.420779,7.97975324 C130.941673,8.37404268 131.547515,8.62677997 132.184183,8.71538729 L132.866672,8.84702707 C133.563272,8.97418023 134.239036,9.20493667 134.873558,9.53232827 C135.328717,9.76294525 135.71241,10.1240215 135.980297,10.5738312 C136.216528,11.0224176 136.334932,11.528831 136.323386,12.0412276 C136.34265,12.6861883 136.162781,13.3204111 135.810597,13.8493387 C135.436803,14.3735848 134.923269,14.7697174 134.334945,14.9876356 C133.580018,15.269287 132.782249,15.4031438 131.981281,15.3825549 Z" id="Path"></path>
                <polygon id="Path" points="141.613412 15.3846154 141.613412 4.97167067 137.179487 4.97167067 137.179487 3.84615385 147.435897 3.84615385 147.435897 4.97167067 143.001972 4.97167067 143.001972 15.3846154"></polygon>
                <path d="M55.5336196,41.4491185 C54.660725,41.4447936 53.7893786,41.3763499 52.9268552,41.244359 C52.0092318,41.1095928 51.1058133,40.8938506 50.2275428,40.5997459 L50.2275428,39.6972875 C50.8497072,39.902716 51.4831152,40.073618 52.1247738,40.2091862 C53.2473452,40.4507175 54.3922523,40.5777842 55.541332,40.5883704 C57.6467956,40.5883704 59.2213945,40.2091862 60.2651286,39.4508178 C61.316323,38.6787296 61.9041657,37.4400773 61.8307297,36.1519154 C61.8307297,34.9347342 61.4181205,34.0133166 60.6006145,33.3952464 C59.7831085,32.7771761 58.448877,32.2880285 56.5940638,31.9353872 L55.6223113,31.749587 C53.6942311,31.3704028 52.275164,30.7637081 51.3651102,29.9295029 C50.4460368,29.0557307 49.9506738,27.8372893 50.0038855,26.5813065 C49.9515397,25.1150493 50.6044634,23.7101626 51.7661508,22.7894647 C52.9384236,21.8415042 54.6981182,21.3675214 57.0452346,21.3675214 C57.8944087,21.3670632 58.7424719,21.4278961 59.5825882,21.5495324 C60.3969923,21.6623827 61.2005218,21.8412076 61.9849761,22.0841821 L61.9849761,22.9866404 C61.1682829,22.7345987 60.3328092,22.5456955 59.4861841,22.421656 C58.659966,22.3034512 57.8261654,22.2438917 56.9912483,22.2434394 C55.8604018,22.2081037 54.732198,22.3711732 53.6595256,22.7250034 C52.8525212,22.995799 52.1506583,23.5057994 51.650466,24.1848625 C51.1865439,24.8752508 50.9508549,25.6897139 50.9756379,26.5168452 C50.9756379,27.720123 51.3394024,28.6465964 52.0669314,29.2962653 C52.7944603,29.9459342 54.0489979,30.4426655 55.830544,30.7864592 L56.8022964,30.9722594 C58.005624,31.1719496 59.1740934,31.5383466 60.2728409,32.060518 C61.06134,32.432285 61.728973,33.0126285 62.2009211,33.7365121 C62.6247869,34.459608 62.8382331,35.2834106 62.8179068,36.1177888 C62.8518394,37.1524098 62.5536759,38.1712794 61.9656953,39.0299234 C61.3444781,39.8633029 60.4814898,40.4924786 59.4900403,40.8348401 C58.2206776,41.2763513 56.8795702,41.4845732 55.5336196,41.4491185 L55.5336196,41.4491185 Z" id="Path"></path>
                <polygon id="Path" points="76.6900228 41.0142516 76.6900228 22.2331164 69.2307692 22.2331164 69.2307692 21.3675214 85.042735 21.3675214 85.042735 22.2445058 77.5834815 22.2445058 77.5834815 41.025641"></polygon>
                <path d="M93.1623932,41.0142516 L93.1623932,21.3675214 L105.868369,21.3675214 L105.868369,22.2445058 L94.0672358,22.2445058 L94.0672358,40.1486565 L105.982906,40.1486565 L105.982906,41.025641 L93.1623932,41.0142516 Z M93.6930815,31.3446435 L93.6930815,30.4790484 L104.513014,30.4790484 L104.513014,31.3560329 L93.6930815,31.3446435 Z" id="Shape"></path>
                <path d="M114.957265,41.0142516 L114.957265,21.3675214 L127.644151,21.3675214 L127.644151,22.2445058 L115.865925,22.2445058 L115.865925,40.1486565 L127.777778,40.1486565 L127.777778,41.025641 L114.957265,41.0142516 Z M115.491771,31.3446435 L115.491771,30.4790484 L126.307886,30.4790484 L126.307886,31.3560329 L115.491771,31.3446435 Z" id="Shape"></path>
                <polygon id="Path" points="137.606838 41.0142516 137.606838 21.3675214 138.517762 21.3675214 138.517762 40.1486565 150 40.1486565 150 41.025641"></polygon>
            </g>
        </g>
    </g>
</svg>