<?xml version="1.0" encoding="UTF-8"?>
<svg width="351px" height="108px" viewBox="0 0 351 108" version="1.1" xmlns="http://www.w3.org/2000/svg" xmlns:xlink="http://www.w3.org/1999/xlink">
    <title>logo_BI_STEEL_</title>
    <g id="Page-2" stroke="none" stroke-width="1" fill="none" fill-rule="evenodd">
        <g id="Artboard" fill="#676665" fill-rule="nonzero">
            <g id="logo_BI_STEEL_">
                <path d="M92.1578191,24.1985478 L54.7958162,40.0997525 C52.0767469,41.2128689 49.0214892,41.2128689 46.30242,40.0997525 L24.4788619,30.8152157 C22.4136256,29.9318155 22.4136256,27.7586508 24.4788619,26.8752506 L46.2845391,17.6260498 C49.0036084,16.5129334 52.0588661,16.5129334 54.7779353,17.6260498 L68.5998201,23.4918276 C70.5769679,24.3062401 72.7954224,24.3378714 74.7955291,23.5801676 L87.4015172,18.6684621 C89.5561577,17.7850619 89.6187406,15.5853952 87.4998618,14.6931609 L54.7779353,0.841444821 C52.060647,-0.280481607 49.0018275,-0.280481607 46.2845391,0.841444821 L3.18278847,19.0924942 C1.22483714,19.9228905 0,21.4423389 0,23.0942974 L0,34.5785008 C0,36.2304593 1.19801589,37.7499078 3.15596722,38.580304 L46.1504329,56.8401875 C48.9677072,57.9887078 52.1305289,57.9887078 54.9478033,56.8401875 L81.0895827,45.4531581 C83.1726999,44.5697578 85.7922421,45.6651741 85.7922421,47.4143067 L85.7922421,50.2323535 C85.7922421,51.875478 84.5852858,53.4037604 82.6362749,54.2341567 L54.7868757,66.3367403 C52.0678065,67.4498567 49.0125488,67.4498567 46.2934795,66.3367403 L4.72054021,48.668735 C2.68212512,47.8030028 0,48.8984191 0,50.6563856 L0,60.8596587 C0,62.5116171 1.19801589,64.0310656 3.15596722,64.8614618 L46.2934795,83.1655153 C49.0157413,84.2781616 52.0735544,84.2781616 54.7958162,83.1655153 L97.8528647,64.8614618 C99.8018757,64.0310656 101,62.5116171 101,60.8684927 L101,27.8999949 C101.026713,24.5872439 96.0737217,22.5289213 92.1578191,24.1985478 Z" id="Path"></path>
                <path d="M96.3075221,73.3066959 L54.7455752,90.6622055 C52.0314064,91.7609062 48.9775316,91.7609062 46.2633628,90.6622055 L4.69247788,73.3066959 C2.6099115,72.4389204 0,73.514962 0,75.250513 L0,85.264642 C0,86.8873822 1.19769912,88.379956 3.15513274,89.195665 L46.2544248,107.175973 C48.97479,108.274676 52.0341481,108.274676 54.7545133,107.175973 L97.8448673,89.195665 C99.8023009,88.379956 101,86.8873822 101,85.264642 L101,75.250513 C101,73.514962 98.3900885,72.4389204 96.3075221,73.3066959 Z" id="Path"></path>
                <path d="M125.414526,35.9930375 C124.61224,35.9930375 123.809955,35.9930375 123.016486,35.9383829 C122.223018,35.8837283 121.411916,35.8472919 120.583182,35.7744191 C119.754448,35.7015463 118.899265,35.6013462 118,35.4738187 L118,8.90256864 C118.881632,8.7021684 119.763264,8.53820457 120.644896,8.41067714 C121.526528,8.28314971 122.40816,8.18294959 123.369139,8.11007678 C124.330118,8.03720396 125.291097,8.00987666 126.331423,8.00987666 C128.447884,7.94193518 130.561208,8.22486826 132.591011,8.84791403 C133.993597,9.26096604 135.230145,10.1297425 136.117539,11.3255897 C136.898494,12.529998 137.293263,13.957575 137.246028,15.4064674 C137.259539,16.4405185 137.048661,17.464561 136.628886,18.4033619 C136.217196,19.2963466 135.57308,20.0533203 134.768642,20.5895463 C133.792334,21.2170402 132.693117,21.6122087 131.550685,21.7464022 L131.621215,21.4913474 C133.429175,21.5582744 135.148294,22.3181156 136.443743,23.6228772 C137.501937,24.8824166 138.056688,26.5107503 137.995415,28.1774282 C138.016614,29.3226753 137.790741,30.4584308 137.334191,31.5022503 C136.856837,32.5340427 136.100496,33.4009243 135.15656,33.9981442 C133.968476,34.746054 132.655982,35.2588317 131.286195,35.5102551 C129.349686,35.8749479 127.382487,36.0366957 125.414526,35.9930375 Z M126.066933,33.5426891 C127.899517,33.6066193 129.731479,33.3980126 131.506603,32.9232702 C132.598874,32.6546796 133.571285,32.0126962 134.266112,31.1014498 C134.818773,30.2020556 135.095361,29.1510441 135.05958,28.0863371 C135.177818,26.5438382 134.509617,25.0491416 133.296316,24.142096 C132.120807,23.3222769 130.29289,22.9123673 127.812565,22.9123673 L120.600815,22.9123673 L120.600815,20.4346916 L127.459912,20.4346916 C128.747299,20.4680618 130.031962,20.2960012 131.268563,19.9245819 C132.16768,19.6642877 132.956231,19.0997446 133.507908,18.32138 C134.032582,17.4823996 134.291418,16.4954512 134.248479,15.4975584 C134.375907,13.9761611 133.702577,12.5012958 132.485215,11.6352992 C131.303828,10.8519164 129.337788,10.4602251 126.569464,10.4602251 C125.396893,10.4602251 124.3742,10.4602251 123.501384,10.5786434 C122.682083,10.6501751 121.866941,10.7657133 121.059263,10.9247893 L121.059263,33.2147615 C121.861548,33.3331798 122.655017,33.4242708 123.430854,33.4698163 C124.20669,33.5153618 125.079505,33.5426891 126.066933,33.5426891 Z" id="Shape"></path>
                <path d="M152.994211,35.9876204 C150.856548,36.0770418 148.726304,35.6811225 146.761544,34.8292395 C145.174252,34.0635863 143.898133,32.7705761 143.14853,31.1684024 C142.305355,29.1789217 141.917788,27.0241638 142.014519,24.8636274 L142.014519,9 L145.108876,9 L145.108876,25.1731185 C145.108876,28.0381214 145.750603,30.1249754 147.05164,31.4159953 C148.352676,32.7070151 150.339393,33.3613677 153.038165,33.3613677 C155.736936,33.3613677 157.706072,32.7158577 159.007109,31.4159953 C160.308145,30.1161328 160.949872,28.0381214 160.949872,25.1731185 L160.949872,9 L163.991484,9 L163.991484,24.8636274 C164.064925,27.0153669 163.662593,29.1566743 162.813519,31.133032 C162.06947,32.7567225 160.781081,34.0652279 159.174133,34.8292395 C157.227421,35.6794058 155.114685,36.0754226 152.994211,35.9876204 Z" id="Path"></path>
                <path d="M179.796746,35.9926279 C178.949874,35.9926279 178.112207,35.9926279 177.283745,35.9926279 C176.455283,35.9926279 175.617616,35.9133414 174.761539,35.8516742 C173.905462,35.790007 172.975744,35.6931013 172,35.5697668 L172,9.82810281 C172.911367,9.62644385 173.833142,9.47059414 174.761539,9.36119378 C175.728078,9.23785932 176.713027,9.14976327 177.688771,9.08809604 C178.664514,9.02642881 179.603438,9 180.496335,9 C185.565294,9 189.416107,10.1188198 192.048774,12.3564593 C194.681442,14.5940988 195.994707,17.9828599 195.98857,22.5227427 C196.093495,25.1549957 195.474531,27.7674888 194.19357,30.0990025 C192.953567,32.1042168 191.048245,33.6547735 188.780953,34.5038047 C185.918102,35.5622081 182.864766,36.0681935 179.796746,35.9926279 Z M180.45031,33.4114138 C182.784856,33.4853525 185.109357,33.0860613 187.271311,32.2397364 C189.01176,31.5264592 190.44442,30.2641752 191.330774,28.663037 C192.299052,26.7436061 192.760521,24.6261484 192.674723,22.4963139 C192.760691,20.3655 192.295899,18.2473096 191.321569,16.3295909 C190.437756,14.723537 189.00946,13.4529178 187.271311,12.7264627 C185.148793,11.9011582 182.869021,11.5110124 180.579182,11.5812141 C179.738446,11.5812141 178.882369,11.6164525 178.01095,11.6869293 C177.136463,11.7574062 176.225155,11.871931 175.249411,12.0128847 L175.249411,33.0854584 C175.967411,33.1911737 176.731437,33.2792697 177.559899,33.3321273 C178.388361,33.384985 179.345694,33.4114138 180.45031,33.4114138 Z" id="Shape"></path>
                <polygon id="Path" points="211 36 211 9 214 9 214 36"></polygon>
                <polygon id="Path" points="222 36 222 9 225.066202 9 241.870693 32.6227605 241.155246 32.6227605 241.155246 9 244 9 244 36 240.933798 36 224.146341 12.3772395 224.853271 12.3772395 224.853271 36"></polygon>
                <polygon id="Path" points="258.772944 36 248 9 251.367097 9 261.459551 34.5398142 260.734874 34.5398142 270.862678 9 274 9 263.218219 36"></polygon>
                <path d="M278,36 L278,9 L296.785311,9 L296.785311,11.5351692 L281.112994,11.5351692 L281.112994,33.4648308 L297,33.4648308 L297,36 L278,36 Z M279.601224,23.4585269 L279.601224,20.8785667 L294.960452,20.8785667 L294.960452,23.4137359 L279.601224,23.4585269 Z" id="Shape"></path>
                <path d="M308.836197,35.9951785 C306.31223,36.0056508 303.80198,35.6052772 301.394929,34.8083297 L301.394929,32.0903555 C302.243725,32.3832362 303.108544,32.6222459 303.984698,32.8060887 C304.847954,32.987287 305.71121,33.1231857 306.574466,33.2137848 C307.437722,33.304384 308.188755,33.3406236 308.91389,33.3406236 C311.37417,33.3406236 313.169743,32.9057477 314.317874,32.0450559 C315.460956,31.1859812 316.110997,29.7771943 316.044386,28.3033113 C316.107134,27.0894218 315.597165,25.9207546 314.680441,25.1776409 C313.319144,24.2757818 311.7876,23.6946584 310.191509,23.4743771 L308.611751,23.1572801 C305.952922,22.6227452 304.019228,21.7348736 302.810669,20.5117852 C301.583193,19.2477796 300.926998,17.4947761 301.006464,15.6919108 C300.920458,13.4882204 301.872677,11.3810997 303.55307,10.0566442 C305.279582,8.67953725 307.80029,8 311.192887,8 C312.367969,7.99783258 313.541832,8.07956067 314.706339,8.24466137 C315.771902,8.40202981 316.825024,8.64124991 317.857224,8.96039459 L317.857224,11.6783688 C316.797026,11.3294803 315.711479,11.0719288 314.611381,10.9082761 C313.484287,10.7453537 312.347886,10.6636233 311.210152,10.6636585 C309.840032,10.6222353 308.472616,10.8150112 307.16148,11.234433 C306.236131,11.5276442 305.419292,12.1128699 304.822056,12.9105172 C304.302391,13.6929081 304.036074,14.6298689 304.062391,15.5831918 C303.991571,16.7351228 304.401097,17.8625195 305.184624,18.6726226 C306.403515,19.5952599 307.821185,20.1866651 309.310988,20.3940063 L310.908012,20.7020433 C312.538056,20.9995817 314.119344,21.5395518 315.604125,22.3056482 C316.669197,22.8452919 317.567038,23.6902104 318.193894,24.7427651 C318.746676,25.7924572 319.02374,26.9774646 318.996722,28.1764725 C319.041801,29.6856805 318.620908,31.1697619 317.796796,32.4074525 C316.922119,33.6341885 315.720451,34.5611388 314.343772,35.0710672 C312.577242,35.7301315 310.710464,36.0433566 308.836197,35.9951785 Z" id="Path"></path>
                <polygon id="Path" points="331.375385 36 331.375385 11.6337094 321 11.6337094 321 9 345 9 345 11.6337094 334.624615 11.6337094 334.624615 36"></polygon>
                <path d="M129.94867,96.9909372 C127.906097,96.9808169 125.867146,96.8206588 123.848841,96.5118001 C121.701602,96.196447 119.587603,95.6916104 117.53245,95.0034054 L117.53245,92.8916528 C118.988315,93.3723554 120.47049,93.7722662 121.971971,94.0894957 C124.598788,94.654679 127.27787,94.952015 129.966717,94.9767867 C134.893502,94.9767867 138.578063,94.0894957 141.020401,92.3149137 C143.480196,90.5082274 144.855748,87.6097808 144.683908,84.595482 C144.683908,81.7472779 143.718402,79.5911608 141.805438,78.1448765 C139.892474,76.6985921 136.770372,75.5539868 132.430109,74.7288061 L130.156209,74.2940335 C125.644501,73.4067426 122.323884,71.987077 120.194358,70.0350368 C118.043726,67.9904098 116.884577,65.139257 117.009092,62.2002573 C116.886603,58.7692154 118.414444,55.4817805 121.132793,53.3273473 C123.875911,51.1091198 127.993597,50 133.485849,50 C135.472916,49.9989278 137.457384,50.1412768 139.423256,50.4259058 C141.328962,50.6899756 143.209221,51.1084259 145.044844,51.6769861 L145.044844,53.7887386 C143.133782,53.1989609 141.178774,52.7569275 139.197671,52.466675 C137.264321,52.1900759 135.313227,52.0507067 133.359521,52.0496483 C130.71334,51.9669627 128.073343,52.3485453 125.56329,53.1765078 C123.6749,53.8101698 122.03254,55.0035705 120.862091,56.5925782 C119.776513,58.2080869 119.225001,60.1139306 119.282993,62.0494178 C119.282993,64.8650879 120.134202,67.0330356 121.836619,68.5532608 C123.539037,70.073486 126.474655,71.2358373 130.643473,72.0403144 L132.917374,72.475087 C135.73316,72.9423621 138.467378,73.7997309 141.038448,75.0216122 C142.883536,75.8915469 144.445797,77.2495508 145.550155,78.9434384 C146.542001,80.6354827 147.041465,82.5631808 146.993902,84.5156258 C147.073304,86.9366389 146.375602,89.3207938 144.999727,91.3300207 C143.546079,93.2801288 141.526686,94.7523998 139.206694,95.5535258 C136.236385,96.5866621 133.098194,97.0739013 129.94867,96.9909372 L129.94867,96.9909372 Z" id="Path"></path>
                <polygon id="Path" points="179.454653 95.9733488 179.454653 52.0254925 162 52.0254925 162 50 199 50 199 52.0521437 181.545347 52.0521437 181.545347 96"></polygon>
                <path d="M218,95.9733488 L218,50 L247.731983,50 L247.731983,52.0521437 L220.117332,52.0521437 L220.117332,93.9478563 L248,93.9478563 L248,96 L218,95.9733488 Z M219.241811,73.3464658 L219.241811,71.3209733 L244.560453,71.3209733 L244.560453,73.373117 L219.241811,73.3464658 Z" id="Shape"></path>
                <path d="M269,95.9733488 L269,50 L298.687314,50 L298.687314,52.0521437 L271.126266,52.0521437 L271.126266,93.9478563 L299,93.9478563 L299,96 L269,95.9733488 Z M270.250744,73.3464658 L270.250744,71.3209733 L295.560453,71.3209733 L295.560453,73.373117 L270.250744,73.3464658 Z" id="Shape"></path>
                <polygon id="Path" points="322 95.9733488 322 50 324.131563 50 324.131563 93.9478563 351 93.9478563 351 96"></polygon>
            </g>
        </g>
    </g>
</svg>